<svg width="30" height="30" viewBox="0 0 30 30" fill="none" xmlns="http://www.w3.org/2000/svg">
<mask id="mask0_26_86" style="mask-type:alpha" maskUnits="userSpaceOnUse" x="0" y="0" width="30" height="30">
<rect width="30" height="30" fill="#D9D9D9"/>
</mask>
<g mask="url(#mask0_26_86)">
<path d="M24.9375 26.25C22.3333 26.25 19.7604 25.6823 17.2188 24.5469C14.6771 23.4115 12.3646 21.8021 10.2812 19.7188C8.19792 17.6354 6.58854 15.3229 5.45313 12.7812C4.31771 10.2396 3.75 7.66667 3.75 5.0625C3.75 4.6875 3.875 4.375 4.125 4.125C4.375 3.875 4.6875 3.75 5.0625 3.75H10.125C10.4167 3.75 10.6771 3.84896 10.9062 4.04687C11.1354 4.24479 11.2708 4.47917 11.3125 4.75L12.125 9.125C12.1667 9.45833 12.1563 9.73958 12.0938 9.96875C12.0313 10.1979 11.9167 10.3958 11.75 10.5625L8.71875 13.625C9.13542 14.3958 9.63021 15.1406 10.2031 15.8594C10.776 16.5781 11.4063 17.2708 12.0938 17.9375C12.7396 18.5833 13.4167 19.1823 14.125 19.7344C14.8333 20.2865 15.5833 20.7917 16.375 21.25L19.3125 18.3125C19.5 18.125 19.7448 17.9844 20.0469 17.8906C20.349 17.7969 20.6458 17.7708 20.9375 17.8125L25.25 18.6875C25.5417 18.7708 25.7812 18.9219 25.9687 19.1406C26.1562 19.3594 26.25 19.6042 26.25 19.875V24.9375C26.25 25.3125 26.125 25.625 25.875 25.875C25.625 26.125 25.3125 26.25 24.9375 26.25ZM7.53125 11.25L9.59375 9.1875L9.0625 6.25H6.28125C6.38542 7.10417 6.53125 7.94792 6.71875 8.78125C6.90625 9.61458 7.17708 10.4375 7.53125 11.25ZM18.7188 22.4375C19.5313 22.7917 20.3594 23.0729 21.2031 23.2812C22.0469 23.4896 22.8958 23.625 23.75 23.6875V20.9375L20.8125 20.3438L18.7188 22.4375Z" fill="#FFE9E9"/>
</g>
</svg>
