<svg width="319" height="31" viewBox="0 0 319 31" fill="none" xmlns="http://www.w3.org/2000/svg">
<path d="M18.6249 3.79357V22.11C18.6249 24.9456 17.8032 27.1298 16.1599 28.6625C14.5426 30.1953 12.3514 30.9617 9.58636 30.9617C6.69088 30.9617 4.36929 30.157 2.62157 28.5476C0.873858 26.9382 0 24.6518 0 21.6885H6.65176C6.65176 22.8125 6.88652 23.6683 7.35606 24.2559C7.8256 24.8179 8.50381 25.0989 9.39072 25.0989C10.1994 25.0989 10.8254 24.8434 11.2689 24.3325C11.7123 23.8216 11.934 23.0808 11.934 22.11V3.79357H18.6249ZM45.589 9.3115V30.6934H38.8981V27.7812C38.2199 28.7264 37.2938 29.4928 36.12 30.0803C34.9722 30.6424 33.6941 30.9234 32.2855 30.9234C30.616 30.9234 29.1422 30.5657 27.864 29.8504C26.5858 29.1096 25.5946 28.0494 24.8903 26.67C24.186 25.2905 23.8338 23.6683 23.8338 21.8035V9.3115H30.4856V20.9221C30.4856 22.3527 30.8638 23.4639 31.6203 24.2559C32.3768 25.0478 33.3941 25.4438 34.6723 25.4438C35.9765 25.4438 37.0069 25.0478 37.7634 24.2559C38.5198 23.4639 38.8981 22.3527 38.8981 20.9221V9.3115H45.589ZM57.0859 2.33746V30.6934H50.395V2.33746H57.0859ZM65.2997 7.089C64.1259 7.089 63.1607 6.7569 62.4043 6.09271C61.6739 5.40297 61.3087 4.55995 61.3087 3.56366C61.3087 2.54182 61.6739 1.69881 62.4043 1.03461C63.1607 0.344873 64.1259 0 65.2997 0C66.4475 0 67.3866 0.344873 68.1169 1.03461C68.8734 1.69881 69.2517 2.54182 69.2517 3.56366C69.2517 4.55995 68.8734 5.40297 68.1169 6.09271C67.3866 6.7569 66.4475 7.089 65.2997 7.089ZM68.6256 9.3115V30.6934H61.9347V9.3115H68.6256ZM72.1441 19.9642C72.1441 17.7672 72.5615 15.8385 73.3962 14.178C74.257 12.5175 75.4178 11.2402 76.8786 10.3461C78.3394 9.452 79.9697 9.00495 81.7696 9.00495C83.3086 9.00495 84.652 9.3115 85.7998 9.9246C86.9737 10.5377 87.8736 11.3424 88.4997 12.3387V9.3115H95.1906V30.6934H88.4997V27.6663C87.8475 28.6625 86.9346 29.4672 85.7606 30.0803C84.6129 30.6934 83.2695 31 81.7304 31C79.9566 31 78.3394 30.5529 76.8786 29.6588C75.4178 28.7392 74.257 27.4491 73.3962 25.7886C72.5615 24.1026 72.1441 22.1611 72.1441 19.9642ZM88.4997 20.0025C88.4997 18.3675 88.0301 17.0775 87.0911 16.1323C86.178 15.1871 85.0563 14.7145 83.726 14.7145C82.3956 14.7145 81.2609 15.1871 80.3218 16.1323C79.4088 17.0519 78.9524 18.3292 78.9524 19.9642C78.9524 21.5991 79.4088 22.9019 80.3218 23.8727C81.2609 24.8179 82.3956 25.2905 83.726 25.2905C85.0563 25.2905 86.178 24.8179 87.0911 23.8727C88.0301 22.9275 88.4997 21.6374 88.4997 20.0025ZM113.335 9.08158C115.891 9.08158 117.926 9.89905 119.439 11.534C120.978 13.1434 121.747 15.3659 121.747 18.2015V30.6934H115.095V19.0828C115.095 17.6522 114.717 16.541 113.961 15.7491C113.204 14.9572 112.187 14.5612 110.909 14.5612C109.631 14.5612 108.613 14.9572 107.857 15.7491C107.1 16.541 106.722 17.6522 106.722 19.0828V30.6934H100.031V9.3115H106.722V12.1471C107.4 11.2019 108.313 10.4611 109.461 9.9246C110.609 9.36259 111.9 9.08158 113.335 9.08158ZM146.978 19.6576C146.978 20.2707 146.939 20.9094 146.86 21.5736H131.718C131.822 22.9019 132.253 23.9238 133.009 24.6391C133.792 25.3288 134.744 25.6737 135.865 25.6737C137.535 25.6737 138.696 24.9839 139.348 23.6045H146.469C146.104 25.0095 145.439 26.274 144.474 27.398C143.534 28.522 142.348 29.4034 140.913 30.042C139.478 30.6807 137.874 31 136.1 31C133.961 31 132.057 30.5529 130.387 29.6588C128.718 28.7647 127.414 27.4874 126.475 25.8269C125.536 24.1665 125.066 22.225 125.066 20.0025C125.066 17.78 125.523 15.8385 126.436 14.178C127.375 12.5175 128.679 11.2402 130.348 10.3461C132.018 9.452 133.935 9.00495 136.1 9.00495C138.213 9.00495 140.091 9.43923 141.735 10.3078C143.378 11.1764 144.656 12.4153 145.569 14.0247C146.508 15.6341 146.978 17.5117 146.978 19.6576ZM140.13 17.9333C140.13 16.8092 139.739 15.9151 138.957 15.2509C138.174 14.5867 137.196 14.2546 136.022 14.2546C134.9 14.2546 133.948 14.574 133.166 15.2126C132.409 15.8513 131.94 16.7581 131.757 17.9333H140.13ZM175.899 25.9419H165.647L164.004 30.6934H157L166.938 3.79357H174.686L184.624 30.6934H177.542L175.899 25.9419ZM174.177 20.8838L170.773 11.0358L167.408 20.8838H174.177ZM215.507 9.08158C218.22 9.08158 220.372 9.88628 221.963 11.4957C223.581 13.1051 224.389 15.3403 224.389 18.2015V30.6934H217.738V19.0828C217.738 17.7033 217.359 16.6432 216.603 15.9024C215.873 15.136 214.855 14.7528 213.551 14.7528C212.247 14.7528 211.216 15.136 210.46 15.9024C209.729 16.6432 209.364 17.7033 209.364 19.0828V30.6934H202.713V19.0828C202.713 17.7033 202.334 16.6432 201.578 15.9024C200.847 15.136 199.83 14.7528 198.526 14.7528C197.222 14.7528 196.191 15.136 195.435 15.9024C194.704 16.6432 194.339 17.7033 194.339 19.0828V30.6934H187.648V9.3115H194.339V11.9938C195.017 11.0997 195.904 10.3972 197 9.88628C198.095 9.34982 199.334 9.08158 200.717 9.08158C202.36 9.08158 203.821 9.42645 205.099 10.1162C206.404 10.8059 207.421 11.7895 208.151 13.0668C208.908 11.8916 209.938 10.9337 211.242 10.1928C212.547 9.452 213.968 9.08158 215.507 9.08158ZM239.008 31C236.869 31 234.938 30.5529 233.217 29.6588C231.521 28.7647 230.178 27.4874 229.186 25.8269C228.221 24.1665 227.739 22.225 227.739 20.0025C227.739 17.8055 228.234 15.8768 229.226 14.2163C230.217 12.5303 231.573 11.2402 233.295 10.3461C235.017 9.452 236.947 9.00495 239.086 9.00495C241.225 9.00495 243.155 9.452 244.877 10.3461C246.598 11.2402 247.955 12.5303 248.946 14.2163C249.937 15.8768 250.433 17.8055 250.433 20.0025C250.433 22.1994 249.924 24.1409 248.907 25.8269C247.916 27.4874 246.546 28.7647 244.799 29.6588C243.077 30.5529 241.147 31 239.008 31ZM239.008 25.3288C240.286 25.3288 241.368 24.869 242.255 23.9493C243.168 23.0297 243.625 21.7141 243.625 20.0025C243.625 18.2909 243.181 16.9753 242.294 16.0556C241.434 15.136 240.364 14.6761 239.086 14.6761C237.782 14.6761 236.699 15.136 235.838 16.0556C234.977 16.9497 234.547 18.2654 234.547 20.0025C234.547 21.7141 234.964 23.0297 235.799 23.9493C236.66 24.869 237.729 25.3288 239.008 25.3288ZM260.674 12.8752C261.457 11.7 262.435 10.7804 263.609 10.1162C264.783 9.42645 266.087 9.08158 267.521 9.08158V16.0173H265.682C264.013 16.0173 262.761 16.375 261.926 17.0902C261.091 17.78 260.674 19.0062 260.674 20.7689V30.6934H253.983V9.3115H260.674V12.8752ZM274.085 7.089C272.911 7.089 271.946 6.7569 271.189 6.09271C270.459 5.40297 270.093 4.55995 270.093 3.56366C270.093 2.54182 270.459 1.69881 271.189 1.03461C271.946 0.344873 272.911 0 274.085 0C275.232 0 276.171 0.344873 276.902 1.03461C277.658 1.69881 278.036 2.54182 278.036 3.56366C278.036 4.55995 277.658 5.40297 276.902 6.09271C276.171 6.7569 275.232 7.089 274.085 7.089ZM277.41 9.3115V30.6934H270.72V9.3115H277.41ZM310.118 9.08158C312.831 9.08158 314.983 9.88628 316.574 11.4957C318.191 13.1051 319 15.3403 319 18.2015V30.6934H312.348V19.0828C312.348 17.7033 311.97 16.6432 311.214 15.9024C310.483 15.136 309.466 14.7528 308.162 14.7528C306.857 14.7528 305.827 15.136 305.07 15.9024C304.34 16.6432 303.975 17.7033 303.975 19.0828V30.6934H297.323V19.0828C297.323 17.7033 296.945 16.6432 296.188 15.9024C295.458 15.136 294.441 14.7528 293.136 14.7528C291.832 14.7528 290.802 15.136 290.045 15.9024C289.315 16.6432 288.95 17.7033 288.95 19.0828V30.6934H282.259V9.3115H288.95V11.9938C289.628 11.0997 290.515 10.3972 291.61 9.88628C292.706 9.34982 293.945 9.08158 295.328 9.08158C296.971 9.08158 298.432 9.42645 299.71 10.1162C301.014 10.8059 302.031 11.7895 302.762 13.0668C303.518 11.8916 304.549 10.9337 305.853 10.1928C307.157 9.452 308.579 9.08158 310.118 9.08158Z" fill="black"/>
</svg>
