<svg width="24" height="24" viewBox="0 0 24 24" fill="none" xmlns="http://www.w3.org/2000/svg">
<mask id="mask0_18_14" style="mask-type:alpha" maskUnits="userSpaceOnUse" x="0" y="0" width="24" height="24">
<rect width="24" height="23.1724" fill="#D9D9D9"/>
</mask>
<g mask="url(#mask0_18_14)">
<path d="M14 9.55867V7.91729C14.55 7.69201 15.1125 7.52304 15.6875 7.4104C16.2625 7.29775 16.8667 7.24143 17.5 7.24143C17.9333 7.24143 18.3583 7.27362 18.775 7.33798C19.1917 7.40235 19.6 7.48281 20 7.57936V9.12419C19.6 8.97936 19.1958 8.87074 18.7875 8.79833C18.3792 8.72592 17.95 8.68971 17.5 8.68971C16.8667 8.68971 16.2583 8.76614 15.675 8.91902C15.0917 9.07189 14.5333 9.28511 14 9.55867ZM14 14.869V13.2276C14.55 13.0024 15.1125 12.8334 15.6875 12.7207C16.2625 12.6081 16.8667 12.5518 17.5 12.5518C17.9333 12.5518 18.3583 12.584 18.775 12.6483C19.1917 12.7127 19.6 12.7932 20 12.8897V14.4345C19.6 14.2897 19.1958 14.1811 18.7875 14.1087C18.3792 14.0363 17.95 14.0001 17.5 14.0001C16.8667 14.0001 16.2583 14.0725 15.675 14.2173C15.0917 14.3621 14.5333 14.5794 14 14.869ZM14 12.2138V10.5725C14.55 10.3472 15.1125 10.1782 15.6875 10.0656C16.2625 9.95293 16.8667 9.8966 17.5 9.8966C17.9333 9.8966 18.3583 9.92879 18.775 9.99316C19.1917 10.0575 19.6 10.138 20 10.2345V11.7794C19.6 11.6345 19.1958 11.5259 18.7875 11.4535C18.3792 11.3811 17.95 11.3449 17.5 11.3449C16.8667 11.3449 16.2583 11.4213 15.675 11.5742C15.0917 11.7271 14.5333 11.9403 14 12.2138ZM6.5 15.4483C7.28333 15.4483 8.04583 15.5328 8.7875 15.7018C9.52917 15.8707 10.2667 16.1242 11 16.4621V6.95178C10.3167 6.56557 9.59167 6.27591 8.825 6.08281C8.05833 5.88971 7.28333 5.79316 6.5 5.79316C5.9 5.79316 5.30417 5.84948 4.7125 5.96212C4.12083 6.07477 3.55 6.24373 3 6.46902V16.0276C3.58333 15.8345 4.1625 15.6897 4.7375 15.5932C5.3125 15.4966 5.9 15.4483 6.5 15.4483ZM13 16.4621C13.7333 16.1242 14.4708 15.8707 15.2125 15.7018C15.9542 15.5328 16.7167 15.4483 17.5 15.4483C18.1 15.4483 18.6875 15.4966 19.2625 15.5932C19.8375 15.6897 20.4167 15.8345 21 16.0276V6.46902C20.45 6.24373 19.8792 6.07477 19.2875 5.96212C18.6958 5.84948 18.1 5.79316 17.5 5.79316C16.7167 5.79316 15.9417 5.88971 15.175 6.08281C14.4083 6.27591 13.6833 6.56557 13 6.95178V16.4621ZM12 19.3104C11.2 18.6989 10.3333 18.2242 9.4 17.8863C8.46667 17.5483 7.5 17.3794 6.5 17.3794C5.8 17.3794 5.1125 17.4679 4.4375 17.6449C3.7625 17.8219 3.11667 18.0713 2.5 18.3932C2.15 18.5702 1.8125 18.5621 1.4875 18.369C1.1625 18.1759 1 17.8943 1 17.5242V5.88971C1 5.7127 1.04583 5.54373 1.1375 5.38281C1.22917 5.22189 1.36667 5.1012 1.55 5.02074C2.31667 4.63454 3.11667 4.34488 3.95 4.15178C4.78333 3.95867 5.63333 3.86212 6.5 3.86212C7.46667 3.86212 8.4125 3.98281 9.3375 4.22419C10.2625 4.46557 11.15 4.82764 12 5.3104C12.85 4.82764 13.7375 4.46557 14.6625 4.22419C15.5875 3.98281 16.5333 3.86212 17.5 3.86212C18.3667 3.86212 19.2167 3.95867 20.05 4.15178C20.8833 4.34488 21.6833 4.63454 22.45 5.02074C22.6333 5.1012 22.7708 5.22189 22.8625 5.38281C22.9542 5.54373 23 5.7127 23 5.88971V17.5242C23 17.8943 22.8375 18.1759 22.5125 18.369C22.1875 18.5621 21.85 18.5702 21.5 18.3932C20.8833 18.0713 20.2375 17.8219 19.5625 17.6449C18.8875 17.4679 18.2 17.3794 17.5 17.3794C16.5 17.3794 15.5333 17.5483 14.6 17.8863C13.6667 18.2242 12.8 18.6989 12 19.3104Z" fill="#E97575"/>
</g>
</svg>
