<svg width="28" height="25" viewBox="0 0 28 25" fill="none" xmlns="http://www.w3.org/2000/svg">
<mask id="mask0_18_62" style="mask-type:alpha" maskUnits="userSpaceOnUse" x="0" y="0" width="28" height="25">
<rect width="28" height="25" fill="#D9D9D9"/>
</mask>
<g mask="url(#mask0_18_62)">
<path d="M10.5149 17.3983L14.4172 8.20925H16.2182L20.1205 17.3983H18.3195L17.4189 15.0627H13.2594L12.316 17.3983H10.5149ZM13.774 13.7227H16.8615L15.3606 9.93219H15.2748L13.774 13.7227ZM3.73958 15.101L2.53888 14.029L6.86996 10.1619C6.32679 9.62589 5.85151 9.07072 5.44414 8.49641C5.03676 7.9221 4.68298 7.31588 4.38281 6.67775H6.18385C6.44114 7.1372 6.7163 7.55198 7.00933 7.9221C7.30236 8.29221 7.65613 8.68146 8.07066 9.08986C8.69959 8.47726 9.22133 7.84871 9.63585 7.20421C10.0504 6.5597 10.4006 5.87371 10.6865 5.14625H1.16666V3.61475H7.17014V2.08325H8.88542V3.61475H14.8889V5.14625H12.4017C12.1016 6.05239 11.6942 6.933 11.1796 7.78809C10.665 8.64318 10.0289 9.44721 9.27135 10.2002L11.3297 12.0763L10.6865 13.6461L8.02778 11.2723L3.73958 15.101Z" fill="#E97575"/>
</g>
</svg>
